<svg id="Capa_1" enable-background="new 0 0 512 512" height="512" viewBox="0 0 512 512" width="512" xmlns="http://www.w3.org/2000/svg"><g><g><path d="m98.396 279.122c7.339-7.513 11.868-17.783 11.868-29.116 0-23.02-18.661-41.681-41.68-41.681s-41.68 18.661-41.68 41.681c0 11.397 4.579 21.722 11.993 29.246-18.572 5.012-38.897 16.547-38.897 43.044v55.502c0 9.228 7.481 16.708 16.708 16.708 9.228 0 16.708-7.48 16.708-16.708v56.443c0 20.464 7.94 20.464 17.735 20.464l17.735-1.883 17.735 1.883c9.795 0 17.735-3.07 17.735-20.464v-56.443c0 9.228 7.48 16.708 16.708 16.708 9.228 0 16.708-7.48 16.708-16.708v-55.502c.001-26.727-20.678-38.232-39.376-43.174z" fill="#ffa6d4"/><g><path d="m86.622 451.976c-5.575 0-10.549-2.573-13.801-6.595-2.003-2.478-5.866-2.478-7.869 0-3.251 4.023-8.226 6.595-13.801 6.595-9.795 0-17.735-7.94-17.735-17.735v18.116c0 9.941 8.135 18.383 18.074 18.197 9.639-.181 17.396-8.05 17.396-17.732 0 9.681 7.758 17.551 17.396 17.732 9.939.186 18.074-8.256 18.074-18.197v-18.116c.001 9.795-7.94 17.735-17.734 17.735z" fill="#f690d2"/></g><path d="m68.887 460.563c-4.276 0-7.742-3.466-7.742-7.742v-66.07c0-4.276 3.466-7.742 7.742-7.742s7.742 3.466 7.742 7.742v66.07c0 4.276-3.467 7.742-7.742 7.742z" fill="#e286c6"/><path d="m68.886 386.461c19.169 0 35.47-31.854 35.47-31.854v-4.273h-70.94v4.273c0 .001 13.472 31.854 35.47 31.854z" fill="#eef2f5"/><path d="m68.886 377.461c-14.462 0-35.47-22.854-35.47-22.854v18.581s21.008 22.854 35.47 22.854 35.47-22.854 35.47-22.854v-18.581c.001.001-21.007 22.854-35.47 22.854z" fill="#deeaf3"/><path d="m281.375 193.994c8.109-8.302 13.114-19.65 13.114-32.172 0-25.436-20.62-46.056-46.056-46.056s-46.056 20.62-46.056 46.056c0 12.594 5.06 24.002 13.251 32.317-20.519 5.538-42.978 18.283-42.978 47.562v98.489c0 10.196 8.266 18.462 18.462 18.462s18.462-8.266 18.462-18.462v92.19c0 10.823 3.387 28.186 19.597 28.597l19.597-10.016 19.597 10.016c15.969 0 19.597-17.774 19.597-28.597v-92.19c0 10.196 8.266 18.462 18.462 18.462 10.196 0 18.462-8.266 18.462-18.462v-98.49c.001-29.532-22.849-42.246-43.511-47.706z" fill="#ffdd91"/><g><path d="m268.366 451.976c-6.299 0-11.904-2.972-15.49-7.591-2.096-2.699-6.119-2.699-8.215 0-3.585 4.619-9.19 7.591-15.49 7.591-10.823 0-19.597-8.774-19.597-19.597v18.111c0 10.626 8.263 19.676 18.882 20.054 11.149.396 20.311-8.524 20.311-19.584 0 11.06 9.163 19.98 20.312 19.584 10.619-.378 18.882-9.428 18.882-20.054v-18.111c.001 10.823-8.772 19.597-19.595 19.597z" fill="#f9cd80"/></g><path d="m468.489 119.672c8.109-8.302 13.114-19.65 13.114-32.172 0-25.436-20.62-46.056-46.056-46.056s-46.056 20.62-46.056 46.056c0 12.594 5.06 24.002 13.251 32.317-20.519 5.538-42.978 18.283-42.978 47.562v135.651c0 10.196 8.266 18.462 18.462 18.462s18.462-8.266 18.462-18.462v129.351c0 10.823 3.181 28.597 19.597 28.597l19.597-10.016 19.597 10.016c15.692 0 19.597-17.774 19.597-28.597v-129.353c0 10.196 8.266 18.462 18.462 18.462 10.196 0 18.462-8.266 18.462-18.462v-135.651c0-29.532-22.85-42.245-43.511-47.705z" fill="#b1e6a0"/><g><path d="m455.479 451.976c-6.299 0-11.905-2.972-15.49-7.591-2.096-2.699-6.119-2.699-8.215 0-3.585 4.619-9.19 7.591-15.49 7.591-10.823 0-19.597-8.774-19.597-19.597v18.111c0 10.626 8.263 19.676 18.882 20.054 11.149.396 20.311-8.524 20.311-19.584 0 11.06 9.163 19.98 20.311 19.584 10.619-.378 18.882-9.428 18.882-20.054v-18.111c.003 10.823-8.771 19.597-19.594 19.597z" fill="#96d5a9"/></g><path d="m33.416 385.539c-4.276 0-7.742-3.466-7.742-7.742v-50.124c0-4.276 3.466-7.742 7.742-7.742s7.742 3.466 7.742 7.742v50.124c0 4.276-3.466 7.742-7.742 7.742z" fill="#e286c6"/><path d="m104.357 385.539c-4.276 0-7.742-3.466-7.742-7.742v-50.124c0-4.276 3.466-7.742 7.742-7.742s7.742 3.466 7.742 7.742v50.124c0 4.276-3.466 7.742-7.742 7.742z" fill="#e286c6"/><g fill="#efbf73"><path d="m209.575 347.931c-4.276 0-7.742-3.466-7.742-7.742v-92.548c0-4.276 3.466-7.742 7.742-7.742s7.742 3.466 7.742 7.742v92.548c0 4.276-3.466 7.742-7.742 7.742z"/><path d="m287.962 347.931c-4.276 0-7.742-3.466-7.742-7.742v-92.548c0-4.276 3.466-7.742 7.742-7.742s7.742 3.466 7.742 7.742v92.548c0 4.276-3.466 7.742-7.742 7.742z"/><path d="m248.769 458.702c-4.276 0-7.742-3.466-7.742-7.742v-109.192c0-4.276 3.466-7.742 7.742-7.742s7.742 3.466 7.742 7.742v109.192c0 4.275-3.467 7.742-7.742 7.742z"/></g><path d="m396.689 310.77c-4.276 0-7.742-3.466-7.742-7.742v-129.709c0-4.276 3.466-7.742 7.742-7.742s7.742 3.466 7.742 7.742v129.709c-.001 4.276-3.467 7.742-7.742 7.742z" fill="#83cc96"/><path d="m475.076 310.77c-4.276 0-7.742-3.466-7.742-7.742v-129.709c0-4.276 3.466-7.742 7.742-7.742s7.742 3.466 7.742 7.742v129.709c0 4.276-3.466 7.742-7.742 7.742z" fill="#83cc96"/><path d="m435.882 458.702c-4.276 0-7.742-3.466-7.742-7.742v-146.353c0-4.276 3.466-7.742 7.742-7.742s7.742 3.466 7.742 7.742v146.353c0 4.275-3.466 7.742-7.742 7.742z" fill="#83cc96"/></g></g></svg>