<svg height="512" viewBox="0 0 512 512" width="512" xmlns="http://www.w3.org/2000/svg"><g id="BULINE"><circle cx="256" cy="256" fill="#3342ae" r="256"/></g><g id="Icons"><path d="m506.87 307.22a254.64 254.64 0 0 1 -45.44 101.55 256.15 256.15 0 0 1 -441.55-53.72 252.45 252.45 0 0 1 -14.75-47.83z" fill="#f2bc88"/><path d="m493.58 351.52a256.81 256.81 0 0 1 -106.19 124.22c-38.08 6.43-81.39 10.07-127.39 10.07-50.57 0-97.95-4.39-138.63-12.06a257.33 257.33 0 0 1 -71.37-65.75 254.62 254.62 0 0 1 -30.13-53c22.57-13 55.18-24 94.49-32q10.2-2.05 21-3.83c11.25-1.85 23-3.45 35-4.79q8.58-.95 17.41-1.72 6.27-.56 12.67-1 15.62-1.11 31.86-1.64 13.62-.44 27.6-.44 9.36 0 18.56.2c11.37.24 22.56.71 33.51 1.39q15.39.94 30.13 2.43 17.34 1.75 33.62 4.19 11.53 1.74 22.47 3.79c38.96 7.33 71.81 17.63 95.39 29.94z" fill="#e3a76d"/><path d="m512 256a256.5 256.5 0 0 1 -5.13 51.22 254.64 254.64 0 0 1 -45.44 101.55q-44.1 7-88.3 10.89-31.08 2.74-62.2 4-8 .3-16 .53-6 .17-12.05.27-26.77.49-53.57-.13l-5.85-.15q-13-.35-25.94-1-29.31-1.38-58.66-4.09-44.39-4.09-88.86-11.09a255.05 255.05 0 0 1 -50-152q0-8.12.5-16.11h511q.5 8 .5 16.11z" fill="#ff79ab"/><path d="m426.64 239.89a141.08 141.08 0 0 1 -15.64 55.17c-20.13 38-33.52 79.16-37.58 122l-.25 2.65-.17 1.39a45.53 45.53 0 0 1 -47.79 41.18c-21.25-1.11-38.46-17.23-42.36-37.83-.28-1.43-.49-2.89-.63-4.37l-7.65-80.74a13.27 13.27 0 0 0 -10.57-11.76h-.18a39.19 39.19 0 0 0 -15.56 0h-.18a13.27 13.27 0 0 0 -10.6 11.76l-7.75 81.76c-.1 1.09-.24 2.16-.42 3.22a45.54 45.54 0 0 1 -47.38 38c-22.72-1.19-40.83-19.55-43-42.2l-.09-1-.2-2.1c-4.06-42.79-17.45-84-37.58-121.95a141.08 141.08 0 0 1 -15.68-55.17z" fill="#e26d9d"/><path d="m426.53 151.05c0-67.7-44.52-122.59-99.44-122.59a83.26 83.26 0 0 0 -39.67 10.17 67.22 67.22 0 0 1 -64 0 83.29 83.29 0 0 0 -39.68-10.17c-54.92 0-99.43 54.89-99.43 122.59a143 143 0 0 0 16.17 66.95c20.13 38 33.53 79.16 37.58 122l.29 3.07c2.15 22.65 20.26 41 43 42.2a45.53 45.53 0 0 0 47.78-41.27l7.75-81.76a13.27 13.27 0 0 1 10.6-11.76h.18a39.56 39.56 0 0 1 15.56 0h.18a13.27 13.27 0 0 1 10.6 11.77l7.66 80.75c2.14 22.65 20.26 41 43 42.2a45.55 45.55 0 0 0 47.78-41.2l.38-4.09c4.06-42.79 17.45-84 37.58-122a143 143 0 0 0 16.13-66.86z" fill="#fff"/><path d="m210.74 376.41a45.32 45.32 0 0 1 -29.41 8.79c-22.71-1.21-40.82-19.56-43-42.21l-.27-3.06c-4.06-42.8-17.45-84-37.59-122a143.06 143.06 0 0 1 -16.12-66.91c0-67.71 44.51-122.6 99.43-122.6a81.92 81.92 0 0 1 26.82 4.58c-41.9 14.39-72.6 61.81-72.6 118.06a143.06 143.06 0 0 0 16.1 66.94c20.14 38 33.53 79.16 37.59 122l.31 3a47.26 47.26 0 0 0 18.74 33.41z" fill="#d1d2d3"/><path d="m318 230.35c-40.83-36.09-82.49-36.48-122.49-1.16q-5.55 4.89-11 10.7h59.74a50.43 50.43 0 0 1 11.61-1.36 51.12 51.12 0 0 1 11.66 1.36h50.73c-.06-3.29-.13-6.46-.25-9.54zm63.64-97c2.36-24.8-4.1-48.94-17.28-64.58-10.55-12.55-24.31-17.77-37.75-14.45a284.35 284.35 0 0 1 -140.75-.23 33.74 33.74 0 0 0 -8.18-1.09c-10.79 0-21.34 5.26-29.84 15.2-13.1 15.32-19.67 39.08-17.57 63.56a433.77 433.77 0 0 1 .07 72.89 109 109 0 0 0 3.15 35.2c5 19.71 14.82 37.07 26.75 44.52a27 27 0 0 0 6.7 3.06 22.4 22.4 0 0 0 6.27.92 21.69 21.69 0 0 0 8.51-1.76 30 30 0 0 0 11.4-9q1.47-1.8 2.94-3.53c16.25-19.11 32.19-30.52 48.15-34.24a50.43 50.43 0 0 1 11.61-1.36 51.12 51.12 0 0 1 11.66 1.36c16.13 3.75 32.45 15.24 49.28 34.48.89 1 1.78 2.05 2.67 3.1 7.58 9 17.09 12.18 26.42 9.19a27.81 27.81 0 0 0 6.52-3.14c11.55-7.48 21.07-24.38 26-43.63a110.61 110.61 0 0 0 3.18-36.82 374 374 0 0 1 .09-69.68zm-42.51 118.84a4.83 4.83 0 0 1 -.74-.76q-5.19-6.17-10.42-11.54-5-5.13-10-9.54c-40.83-36.09-82.49-36.48-122.49-1.16q-5.55 4.89-11 10.7-5.35 5.66-10.66 12.18a5.59 5.59 0 0 1 -.72.76c-.8-.28-2.56-1.63-4.69-4.58a41.88 41.88 0 0 1 -3.49-5.86c-.38-.78-.77-1.61-1.16-2.5a2.55 2.55 0 0 1 -.13-.29 69.5 69.5 0 0 1 -3.16-9 65.26 65.26 0 0 1 -2.47-22.14 477.93 477.93 0 0 0 -.08-80.52c-1.13-13.07 2.21-25.9 8.69-33.48 2.43-2.84 6.14-5.9 10.9-5.9a11.26 11.26 0 0 1 2.86.38 306.36 306.36 0 0 0 151.63.26c6-1.5 10.61 2.2 13.44 5.56 6.57 7.8 9.87 20.93 8.61 34.28a420.66 420.66 0 0 0 -.11 78.15c.88 9.48-1.17 21.56-5.36 31.53l-.21.48q-.15.36-.3.69c-3.8 8.5-7.64 11.85-8.94 12.3z" fill="#eb3c65"/><path d="m353.9 207.19c.88 9.48-1.17 21.56-5.36 31.53-3.92 9.36-8.05 13-9.41 13.47a4.83 4.83 0 0 1 -.74-.76c-54.62-64.8-111.53-64.59-164.58.64a5.59 5.59 0 0 1 -.72.76c-1.36-.47-5.49-4-9.47-13.23-4.24-9.81-6.39-21.74-5.6-31.14a477.93 477.93 0 0 0 -.08-80.52c-1.13-13.07 2.21-25.9 8.69-33.48 2.43-2.84 6.14-5.9 10.9-5.9a11.26 11.26 0 0 1 2.86.38 306.36 306.36 0 0 0 151.61.26c6-1.5 10.61 2.2 13.44 5.56 6.57 7.8 9.87 20.93 8.61 34.28a420.66 420.66 0 0 0 -.15 78.15z" fill="#ef6085"/><g fill="#6891d7"><path d="m210.73 431.18a15 15 0 0 1 -14.27-10.4c-29.52-91.62-38.4-168.88-26.46-229.63a190 190 0 0 1 12.39-40.34 23.85 23.85 0 0 1 38.81-6.93l.16-.15c-.16.15-15.32 16.32-22.58 56.7-6.78 38.03-7.78 105.57 26.22 211.15a15 15 0 0 1 -9.68 18.87 14.69 14.69 0 0 1 -4.59.73z"/><path d="m302.49 426.25a14.78 14.78 0 0 1 -4.6-.73 15 15 0 0 1 -9.68-18.87c34-105.63 33-173.12 26.19-211.15-7.25-40.37-22.4-56.5-22.57-56.7l.15.15a23.85 23.85 0 0 1 38.81 6.94 189.75 189.75 0 0 1 12.39 40.33c12 60.75 3.1 138-26.41 229.63a15 15 0 0 1 -14.28 10.4z"/></g></g></svg>