<svg id="Capa_1" enable-background="new 0 0 511.415 511.415" height="512" viewBox="0 0 511.415 511.415" width="512" xmlns="http://www.w3.org/2000/svg"><g><g><g><path d="m265.253 6.516 10.836 21.956c1.703 3.45 4.994 5.841 8.801 6.394l24.23 3.521c9.587 1.393 13.416 13.175 6.478 19.938l-17.533 17.09c-2.755 2.685-4.012 6.554-3.362 10.346l4.139 24.132c1.638 9.549-8.385 16.83-16.96 12.322l-21.672-11.393c-3.405-1.79-7.473-1.79-10.879 0l-21.672 11.393c-8.575 4.508-18.598-2.773-16.96-12.322l4.139-24.132c.65-3.792-.607-7.661-3.362-10.346l-17.533-17.09c-6.938-6.762-3.109-18.544 6.478-19.938l24.23-3.521c3.807-.553 7.098-2.944 8.801-6.394l10.836-21.956c4.289-8.688 16.677-8.688 20.965 0z" fill="#fe9738"/><path d="m298.067 75.415c-2.76 2.681-4.011 6.557-3.369 10.342l4.146 24.132c1.634 9.554-8.382 16.832-16.967 12.325l-8.911-4.687c1.915-2.771 2.839-6.298 2.186-10.128l-4.89-28.515c-.766-4.473.721-9.047 3.977-12.224l20.718-20.189c2.794-2.726 4.112-6.151 4.18-9.542l9.982 1.453c9.588 1.397 13.418 13.181 6.478 19.941z" fill="#fe860a"/></g><g><g><path d="m195.943 149.178 8.908 18.05c1.4 2.836 4.105 4.802 7.235 5.257l19.92 2.895c7.882 1.145 11.029 10.832 5.326 16.391l-14.414 14.05c-2.265 2.208-3.298 5.389-2.764 8.506l3.403 19.839c1.346 7.85-6.893 13.837-13.943 10.13l-17.817-9.367c-2.8-1.472-6.144-1.472-8.944 0l-17.817 9.367c-7.05 3.706-15.29-2.28-13.943-10.13l3.403-19.839c.535-3.117-.499-6.298-2.764-8.506l-14.414-14.05c-5.704-5.56-2.556-15.246 5.326-16.391l19.92-2.895c3.13-.455 5.836-2.421 7.235-5.257l8.908-18.05c3.526-7.142 13.711-7.142 17.236 0z" fill="#fee45a"/><path d="m222.92 205.822c-2.269 2.204-3.297 5.391-2.769 8.503l3.408 19.84c1.343 7.854-6.891 13.838-13.949 10.133l-7.326-3.853c1.575-2.279 2.334-5.178 1.797-8.327l-4.02-23.443c-.63-3.677.593-7.438 3.27-10.049l17.033-16.598c2.297-2.241 3.381-5.057 3.436-7.845l8.206 1.195c7.882 1.148 11.031 10.837 5.326 16.394z" fill="#fed402"/></g><g><path d="m332.706 149.178 8.908 18.05c1.4 2.836 4.105 4.802 7.235 5.257l19.92 2.895c7.882 1.145 11.029 10.832 5.326 16.391l-14.414 14.05c-2.265 2.208-3.298 5.389-2.764 8.506l3.403 19.839c1.346 7.85-6.893 13.837-13.943 10.13l-17.817-9.367c-2.8-1.472-6.144-1.472-8.944 0l-17.817 9.367c-7.05 3.706-15.29-2.28-13.943-10.13l3.403-19.839c.535-3.117-.499-6.298-2.764-8.506l-14.414-14.05c-5.703-5.56-2.556-15.246 5.326-16.391l19.92-2.895c3.13-.455 5.836-2.421 7.235-5.257l8.908-18.05c3.526-7.142 13.711-7.142 17.236 0z" fill="#fee45a"/><path d="m359.683 205.822c-2.269 2.204-3.297 5.391-2.769 8.503l3.408 19.84c1.343 7.854-6.891 13.838-13.949 10.133l-7.326-3.853c1.575-2.279 2.334-5.178 1.797-8.327l-4.02-23.443c-.63-3.677.593-7.438 3.27-10.049l17.033-16.598c2.297-2.241 3.381-5.057 3.436-7.845l8.206 1.195c7.882 1.148 11.031 10.837 5.326 16.394z" fill="#fed402"/></g></g></g><g><g><path d="m66.375 209.248-6.088-48.738c-1.694-12.261 7.987-23.127 20.362-22.852 10.251.228 18.689 8.134 19.582 18.349l4.825 110.325-29.421 4.828z" fill="#f6a96c"/><path d="m105.058 266.332-15.682 2.57-7.507-110.905c-.48-5.509-3-10.399-6.78-13.933-1.527-1.431-3.267-2.648-5.157-3.587 3.118-1.868 6.78-2.904 10.719-2.819 5.125.107 9.801 2.146 13.303 5.424 3.502 3.288 5.829 7.815 6.278 12.929z" fill="#ea9b58"/><path d="m199.959 511.415c-9.328-31.53-23.008-80.903-12.191-112.537 9.864-28.848-1.219-55.538-22.761-81.764-3.846-4.682-35.631-45.992-47.749-61.914-6.752-10.109-20.42-12.83-30.529-6.079-7.209 4.815-10.636 13.145-9.575 21.195l-18.48-132.93c-.645-13.54-10.988-24.628-24.45-26.212-16.455-1.936-30.922 10.898-30.961 27.467 5.574 44.87 14.906 89.169 20.826 133.988 4.672 35.375 4.733 71.043 32.818 97.823 11.388 10.858 24.427 20.105 34.113 32.659 5.531 7.169 7.618 16.178 8.247 25.05.791 11.16-9.027 83.254-9.027 83.254z" fill="#fed2a4"/></g><g><path d="m444.91 208.57 6.13-49.069c1.706-12.345-8.042-23.284-20.501-23.008-10.321.229-18.816 8.189-19.715 18.473l-4.858 111.076 29.621 4.861z" fill="#f6a96c"/><path d="m451.036 159.496-6.127 49.07-9.319 62.335-15.615-2.565 6.295-59.769 6.138-49.07c1.215-8.836-3.429-16.952-10.749-20.735 2.666-1.387 5.686-2.204 8.879-2.268 12.458-.281 22.208 10.662 20.498 23.002z" fill="#ea9b58"/><path d="m311.451 511.415c9.328-31.53 23.008-80.903 12.191-112.537-9.864-28.848 1.219-55.538 22.761-81.764 3.846-4.682 35.631-45.992 47.749-61.914 6.752-10.109 20.42-12.83 30.529-6.079 7.209 4.815 10.635 13.145 9.575 21.195l18.48-132.93c.645-13.54 10.988-24.628 24.45-26.212 16.455-1.936 30.922 10.898 30.961 27.467-5.574 44.87-14.906 89.169-20.826 133.988-4.672 35.375-4.733 71.043-32.818 97.823-11.388 10.858-24.427 20.105-34.113 32.659-5.531 7.169-7.618 16.178-8.247 25.05-.791 11.16 9.027 83.254 9.027 83.254z" fill="#fed2a4"/><path d="m508.152 138.636c-5.576 44.878-14.915 89.169-20.831 133.995-4.669 35.375-4.731 71.038-32.818 97.816-11.389 10.864-24.428 20.11-34.107 32.664-5.535 7.164-7.627 16.182-8.256 25.047-.783 11.163 9.029 83.252 9.029 83.252h-20.615s-9.813-80.819-9.029-91.972c.629-8.875 2.721-17.883 8.256-25.057 9.678-12.544 22.717-21.8 34.107-32.654 28.087-26.778 24.356-46.383 32.818-89.096 8.787-44.353 15.255-89.117 20.831-133.995-.031-11.74-7.308-21.614-17.409-25.665 2.216-.897 4.587-1.505 7.06-1.793 16.451-1.938 30.922 10.895 30.964 27.458z" fill="#ffbd86"/></g><g fill="#ffbd86"><path d="m129.878 337.152-28.789-55.732c-2.058-3.984-3.625-8.22-4.449-12.628-2.261-12.094 1.454-19.843 3.793-23.317-4.676-.329-9.497.843-13.7 3.649-6.307 4.235-10.073 11.655-9.743 19.249l.165 1.942 31.942 60.189 7.174 13.883c1.387 2.6 4.049 4.091 6.814 4.091 1.213 0 2.456-.288 3.607-.904 3.761-1.994 5.19-6.66 3.186-10.422z"/><path d="m381.592 337.056 28.789-55.732c2.058-3.984 3.625-8.22 4.449-12.628 2.261-12.095-1.454-19.843-3.793-23.317 4.676-.329 9.497.843 13.7 3.649 6.307 4.235 10.073 11.655 9.743 19.249l-.165 1.942-31.942 60.189-7.174 13.883c-1.387 2.6-4.049 4.09-6.814 4.09-1.213 0-2.456-.288-3.607-.904-3.762-1.993-5.19-6.659-3.186-10.421z"/></g></g></g></svg>