<svg id="color" height="512" viewBox="0 0 24 24" width="512" xmlns="http://www.w3.org/2000/svg"><path d="m15.853 23.146c-1.313-1.313-1.353-2.586-1.354-2.649-.001-.274-.224-.497-.499-.497h-4.02c-.276 0-.5.227-.5.503 0 .054-.018 1.327-1.334 2.644-.143.143-.186.357-.108.545.077.187.26.308.462.308h7c.202 0 .385-.121.462-.309.077-.187.034-.402-.109-.545z" fill="#90a4ae"/><path d="m22.25 4h-20.5c-.965 0-1.75.785-1.75 1.75v13.5c0 .965.785 1.75 1.75 1.75h20.5c.965 0 1.75-.785 1.75-1.75v-13.5c0-.965-.785-1.75-1.75-1.75z" fill="#607d8b"/><path d="m22 17h-20v-11h20z" fill="#fff"/><path d="m14.578 12c-.838 0-1.564-.564-1.725-1.341l-.561-3.183c-.013-.062-.131-.153-.292-.153s-.279.091-.297.176l-.552 3.138c-.165.799-.891 1.363-1.729 1.363-.896 0-1.647-.635-1.746-1.476l-.217-1.827c-.013-.096-.112-.617-.629-3.013-.219-1.008-.33-2.043-.33-3.077 0-1.437 1.166-2.607 2.599-2.607.48 0 .952.131 1.364.379.948.572 2.126.572 3.074 0 .412-.248.884-.379 1.364-.379 1.433 0 2.599 1.17 2.599 2.607 0 1.034-.111 2.069-.329 3.078-.55 2.543-.621 2.949-.629 3.013l-.217 1.826c-.1.842-.851 1.476-1.747 1.476z" fill="#00bcd4"/><path d="m9.099 0c-1.433 0-2.599 1.17-2.599 2.607 0 1.034.111 2.069.329 3.076.519 2.398.617 2.919.63 3.013l.216 1.827c.099.842.85 1.477 1.747 1.477.839 0 1.564-.564 1.729-1.363l.553-3.138c.017-.085.135-.176.296-.176v-6.515c-.532 0-1.063-.143-1.538-.429-.412-.248-.884-.379-1.363-.379z" fill="#00a4b9"/><path d="m12 21h-2.591c-.118.501-.431 1.315-1.262 2.146-.143.143-.186.357-.108.545.076.188.259.309.461.309h3.5z" fill="#7d8f97"/><path d="m6.567 4h-4.817c-.965 0-1.75.785-1.75 1.75v13.5c0 .965.785 1.75 1.75 1.75h7.659 2.591v-4h-10v-11h4.898c-.022-.102-.045-.207-.068-.316-.121-.555-.209-1.118-.263-1.684z" fill="#546d79"/></svg>